<svg width="30" height="30" viewBox="0 0 30 30" fill="none" xmlns="http://www.w3.org/2000/svg">
<path fill-rule="evenodd" clip-rule="evenodd" d="M11.2411 6.45407C11.4525 8.23261 11.1632 10.087 10.5209 11.7523C9.81031 13.5946 8.86469 15.5889 8.74772 17.5735C8.64924 19.2449 9.02794 21.2221 10.0379 22.5758C11.144 24.0581 12.9594 25 14.9584 25H16.849C20.0996 25 22.8075 22.5084 23.0775 19.269L23.5287 13.8538C23.5895 13.125 23.0144 12.5 22.283 12.5H15.625C14.5861 12.5 13.7559 11.6593 13.7481 10.6344C13.7391 9.42223 13.8155 7.92605 13.257 6.80901C12.7575 5.8099 12.29 5.625 11.875 5.625C11.5004 5.625 11.201 6.11634 11.2411 6.45407ZM11.875 3.125C13.5695 3.125 14.7426 4.1901 15.4931 5.69099C16.146 6.99689 16.2076 8.56571 16.2394 10H22.283C24.4769 10 26.2022 11.8751 26.0201 14.0614L25.5687 19.4766C25.1909 24.0117 21.3999 27.5 16.849 27.5H14.9584C12.4995 27.5 10.2142 26.4771 8.62469 24.7769C8.06546 24.9228 7.47892 25.0001 6.875 25.0001C5.48972 25.0001 4.33947 24.2239 3.59495 22.9896C2.87113 21.7896 2.5 20.1333 2.5 18.1251C2.5 16.1171 2.87113 14.4606 3.59495 13.2607C4.33947 12.0264 5.48972 11.2502 6.875 11.2502C7.22686 11.2502 7.5983 11.312 7.97165 11.417C8.54354 9.91799 8.95139 8.37165 8.75859 6.74905C8.54396 4.94276 10.0194 3.125 11.875 3.125ZM7.11979 13.7805C6.51414 13.6551 6.0387 14.0496 5.73562 14.552C5.32844 15.227 5 16.383 5 18.1251C5 19.8673 5.32844 21.0233 5.73562 21.6983C6.12214 22.339 6.53439 22.5001 6.875 22.5001C6.95447 22.5001 7.03335 22.4981 7.11161 22.494C6.44234 20.9835 6.15524 19.0694 6.25205 17.4265C6.31139 16.4196 6.7042 15.029 7.11979 13.7805Z" fill="#BB66FF"/>
</svg>
